<svg xmlns="http://www.w3.org/2000/svg" width="160.449" height="160.449" viewBox="0 0 160.449 160.449"><defs><style>.a{fill:#40596b;}.b{fill:#fff;}.c{fill:#cdd6e0;}.d{fill:#f2f2f2;}.e{fill:#acb3ba;}.f{fill:#ffd15c;}.g{fill:#f8b64c;}.h{fill:#ff7058;}.i{fill:#e4eaef;}.j{fill:#f1543f;}</style></defs><path class="a" d="M153.764,78.367H6.685A6.705,6.705,0,0,0,0,85.052v99.612a6.705,6.705,0,0,0,6.685,6.685H153.764a6.705,6.705,0,0,0,6.685-6.685V85.052A6.705,6.705,0,0,0,153.764,78.367Z" transform="translate(0 -53.297)"/><rect class="b" width="140.393" height="92.593" transform="translate(10.028 35.098)"/><rect class="c" width="61.171" height="18.051" transform="translate(49.472 138.053)"/><rect class="d" width="98.275" height="4.346" transform="translate(31.087 156.103)"/><rect class="e" width="61.171" height="5.014" transform="translate(49.472 138.053)"/><path class="d" d="M184.579,117.029v84.9a5.28,5.28,0,0,1-5.348,5.348H73.267a5.28,5.28,0,0,1-5.348-5.348v-84.9Z" transform="translate(-46.191 -79.591)"/><g transform="translate(49.806 61.171)"><path class="b" d="M250.022,191.216v12.7h-1.337v-12.7Z" transform="translate(-218.935 -191.216)"/><path class="b" d="M250.022,343.771v12.7h-1.337v-12.7h1.337Z" transform="translate(-218.935 -294.968)"/><path class="b" d="M298.42,218.341l-9.025,9.025-1-1,9.025-9.025Z" transform="translate(-245.94 -208.981)"/><path class="b" d="M190.8,327.011l-9.025,9.025-1-1,9.025-9.025Z" transform="translate(-172.745 -282.887)"/><path class="b" d="M320.613,285.257v1.337H308.245v-1.337Z" transform="translate(-259.442 -255.173)"/><path class="b" d="M168.058,285.926v.669H155.69v-1.337h12.368Z" transform="translate(-155.69 -255.173)"/><path class="b" d="M299.131,334.7l-1,1-8.691-8.691,1-1Z" transform="translate(-246.651 -282.888)"/><path class="b" d="M190.8,226.364l-1,1-9.025-9.025,1-1Z" transform="translate(-172.745 -208.982)"/><path class="b" d="M221.684,219.134c-.334,0-.669.334-1.337.669l-3.008-7.02,1.337-.669Z" transform="translate(-197.616 -205.429)"/><path class="b" d="M273.929,346.612l-1.337.669-3.008-7.02c.334,0,.669-.334,1.337-.669Z" transform="translate(-233.148 -292.126)"/><path class="b" d="M183.231,256.918c-.334.334-.334.669-.669,1.337l-7.02-3.008.669-1.337Z" transform="translate(-169.192 -233.854)"/><path class="b" d="M309.663,310.208l-.669,1.337-7.02-3.008c.334-.334.334-.669.669-1.337Z" transform="translate(-255.178 -270.096)"/><path class="b" d="M183.231,307.492l-7.02,3.008-.669-1.337,7.02-3.008C182.9,306.824,182.9,307.158,183.231,307.492Z" transform="translate(-169.192 -269.385)"/><path class="b" d="M309.663,255.247l-7.02,3.008c0-.334-.334-.669-.669-1.337l7.02-3.008Z" transform="translate(-255.178 -233.854)"/><path class="b" d="M221.684,339.216l-3.008,7.02-1.337-.669,3.008-7.02C221.015,338.881,221.35,338.881,221.684,339.216Z" transform="translate(-197.616 -291.415)"/><path class="b" d="M274.639,211.738l-2.674,7.02c-.334-.334-.669-.334-1.337-.669l3.008-7.02Z" transform="translate(-233.859 -204.718)"/></g><path class="f" d="M178.6,0H75.648a6.705,6.705,0,0,0-6.685,6.685V24.067h116.66V6.685A7.236,7.236,0,0,0,178.6,0Z" transform="translate(-46.901)"/><path class="a" d="M324.963,273.763l6.351,22.73L337,290.811l5.348,5.682,5.014-5.014-5.348-5.682,5.348-5.683Z" transform="translate(-221.006 -186.185)"/><circle class="g" cx="4.011" cy="4.011" r="4.011" transform="translate(61.84 8.022)"/><circle class="h" cx="4.011" cy="4.011" r="4.011" transform="translate(46.463 8.022)"/><circle class="g" cx="4.011" cy="4.011" r="4.011" transform="translate(31.087 8.022)"/><path class="i" d="M185.289,125.388V141.1a11.393,11.393,0,0,1-7.354,2.34,12.7,12.7,0,0,1-12.7-12.7,12.7,12.7,0,0,1-25.4,0,12.7,12.7,0,0,1-25.4,0,12.7,12.7,0,0,1-25.4,0,12.7,12.7,0,0,1-12.7,12.7,13.715,13.715,0,0,1-7.354-2.34V125.388Z" transform="translate(-46.902 -85.276)"/><path class="h" d="M77.649,88.6h-25.4l5.348-13.371H80.658Z" transform="translate(-35.532 -51.166)"/><path class="c" d="M157.061,88.6h-25.4l3.008-13.371h23.4Z" transform="translate(-89.539 -51.166)"/><path class="h" d="M236.474,88.6h-25.4l1-13.371h23.4Z" transform="translate(-143.547 -51.166)"/><path class="c" d="M313.754,88.6h-25.4l-1-13.371h23.4Z" transform="translate(-195.423 -51.166)"/><path class="h" d="M388.9,88.6H363.5L360.49,75.233h23.065Z" transform="translate(-245.167 -51.166)"/><g transform="translate(42.118 37.438)"><path class="e" d="M131.657,122.712a12.7,12.7,0,0,0,25.4,0v-5.682h-25.4v5.682Z" transform="translate(-131.657 -117.029)"/><path class="e" d="M290.482,117.029v5.682a12.7,12.7,0,1,0,25.4,0v-5.682Z" transform="translate(-239.673 -117.029)"/></g><g transform="translate(16.713 37.438)"><path class="j" d="M52.245,122.712a12.7,12.7,0,0,0,25.4,0v-5.682h-25.4Z" transform="translate(-52.245 -117.029)"/><path class="j" d="M211.069,122.712a12.7,12.7,0,0,0,25.4,0v-5.682h-25.4v5.682Z" transform="translate(-160.26 -117.029)"/><path class="j" d="M369.894,117.029v5.682a12.7,12.7,0,1,0,25.4,0v-5.682Z" transform="translate(-268.276 -117.029)"/></g><ellipse class="h" cx="19.722" cy="20.056" rx="19.722" ry="20.056" transform="translate(60.503 71.868)"/><g transform="translate(66.854 79.556)"><path class="b" d="M219.008,267.071l-.669-2.34h15.376v-11.7H215.331l-1-4.346H208.98v2.005h4.011l4.68,18.385h16.713v-2.005Zm12.7-12.368v7.688H218.005L216,254.7Z" transform="translate(-208.98 -248.686)"/><circle class="b" cx="2.34" cy="2.34" r="2.34" transform="translate(10.697 21.727)"/><circle class="b" cx="2.34" cy="2.34" r="2.34" transform="translate(19.388 21.727)"/></g></svg>